<svg width="32" height="32" viewBox="0 0 32 32" fill="none" xmlns="http://www.w3.org/2000/svg">
<path fill-rule="evenodd" clip-rule="evenodd" d="M2.10576 13.7729C1.81299 13.7729 1.64335 13.9895 1.64335 14.175V29.9236C1.64335 30.1091 1.81299 30.3257 2.10576 30.3257H5.94737V13.7729H2.10576ZM0.0349731 14.175C0.0349731 13.0282 0.999568 12.1646 2.10576 12.1646H6.75156C7.1957 12.1646 7.55575 12.5246 7.55575 12.9687V31.1299C7.55575 31.574 7.1957 31.9341 6.75156 31.9341H2.10576C0.999568 31.9341 0.0349731 31.0705 0.0349731 29.9236V14.175Z" fill="white"/>
<path fill-rule="evenodd" clip-rule="evenodd" d="M17.4649 1.77769C15.6506 1.77769 14.2476 3.16893 14.2476 4.80353V6.81038C14.2476 9.05053 13.6452 10.7464 12.2973 11.9153C11.1314 12.9264 9.5104 13.4489 7.55577 13.7079V27.8681C7.55577 29.1776 8.70337 30.3257 10.2171 30.3257H24.2847C25.5268 30.3257 26.3827 30.0618 26.9454 29.6368C27.4893 29.2261 27.8567 28.5911 27.9821 27.6261C27.9844 27.6086 27.9872 27.5913 27.9906 27.574C28.0869 27.0861 28.18 26.6145 28.2699 26.159C28.8839 23.0492 29.3505 20.6856 29.6715 18.9349C30.0465 16.8898 30.2031 15.7758 30.1915 15.2877V15.2876C30.1609 13.9962 29.026 12.8801 27.5298 12.8801H23.0424C22.507 12.8801 21.9597 12.753 21.5212 12.525C21.1414 12.3276 20.5651 11.8966 20.5651 11.1765V5.36727C20.5651 3.76207 20.0277 2.81949 19.3652 2.36219M12.6392 4.80353C12.6392 2.20761 14.8372 0.169312 17.4649 0.169312C18.4714 0.169312 19.4558 0.471482 20.2781 1.038L20.2787 1.0384C21.5065 1.88585 22.1735 3.41436 22.1735 5.36727V11.0443C22.1949 11.0594 22.2242 11.0778 22.2631 11.098C22.452 11.1962 22.7412 11.2717 23.0424 11.2717H27.5298C29.8144 11.2717 31.7461 13.0023 31.7994 15.2494L30.9955 15.2685L31.7994 15.2494C31.7994 15.2494 31.7994 15.2494 31.7994 15.2494C31.8159 15.9408 31.6171 17.2421 31.2535 19.225C30.9304 20.9874 30.4612 23.3636 29.8478 26.4704C29.7594 26.9184 29.668 27.3816 29.5735 27.8603C29.5747 27.8513 29.5759 27.8423 29.5771 27.8333L28.7796 27.7297L29.5686 27.8853C29.5702 27.877 29.5719 27.8686 29.5735 27.8603C29.4009 29.1465 28.866 30.2019 27.9147 30.9203C26.9756 31.6295 25.7312 31.934 24.2847 31.934H10.2171C7.90829 31.934 5.94739 30.1563 5.94739 27.8681V12.9905C5.94739 12.5766 6.26158 12.2303 6.67355 12.1901C8.85415 11.9775 10.3204 11.5008 11.2436 10.7002C12.1263 9.93475 12.6392 8.75805 12.6392 6.81038V4.80353ZM17.4649 1.77769C18.151 1.77769 18.8159 1.98394 19.3651 2.36209Z" fill="white"/>
</svg>
