<svg width="30" height="26" viewBox="0 0 30 26" fill="none" xmlns="http://www.w3.org/2000/svg">
<path fill-rule="evenodd" clip-rule="evenodd" d="M5.44945 2.32715C3.66716 2.32715 2.20477 3.78954 2.20477 5.57183V20.4282C2.20477 22.2105 3.66716 23.6729 5.44945 23.6729H24.5505C26.3328 23.6729 27.7952 22.2105 27.7952 20.4282V5.57183C27.7952 3.78954 26.3328 2.32715 24.5505 2.32715H5.44945ZM0.204773 5.57183C0.204773 2.68497 2.56259 0.327148 5.44945 0.327148H24.5505C27.4374 0.327148 29.7952 2.68497 29.7952 5.57183V20.4282C29.7952 23.3151 27.4374 25.6729 24.5505 25.6729H5.44945C2.56259 25.6729 0.204773 23.3151 0.204773 20.4282V5.57183Z" fill="white"/>
<path fill-rule="evenodd" clip-rule="evenodd" d="M0.353133 6.10886C0.642584 5.6385 1.25853 5.49184 1.72889 5.78129L15 13.9481L28.2711 5.78129C28.7415 5.49184 29.3574 5.6385 29.6469 6.10886C29.9363 6.57921 29.7897 7.19516 29.3193 7.48461L15.5241 15.974C15.2027 16.1718 14.7973 16.1718 14.4759 15.974L0.680694 7.48461C0.210336 7.19516 0.063682 6.57921 0.353133 6.10886Z" fill="white"/>
</svg>
